<?xml version="1.0" encoding="UTF-8" standalone="no"?>
<!-- Created with Inkscape (http://www.inkscape.org/) -->

<svg
   xmlns:dc="http://purl.org/dc/elements/1.1/"
   xmlns:cc="http://creativecommons.org/ns#"
   xmlns:rdf="http://www.w3.org/1999/02/22-rdf-syntax-ns#"
   xmlns:svg="http://www.w3.org/2000/svg"
   xmlns="http://www.w3.org/2000/svg"
   xmlns:sodipodi="http://sodipodi.sourceforge.net/DTD/sodipodi-0.dtd"
   xmlns:inkscape="http://www.inkscape.org/namespaces/inkscape"
   width="210mm"
   height="297mm"
   viewBox="0 0 210 297"
   version="1.1"
   id="svg8"
   sodipodi:docname="Paco.svg"
   inkscape:version="0.92.3 (2405546, 2018-03-11)">
  <defs
     id="defs2" />
  <sodipodi:namedview
     id="base"
     pagecolor="#ffffff"
     bordercolor="#666666"
     borderopacity="1.0"
     inkscape:pageopacity="0.0"
     inkscape:pageshadow="2"
     inkscape:zoom="0.49497475"
     inkscape:cx="511.90413"
     inkscape:cy="611.52438"
     inkscape:document-units="mm"
     inkscape:current-layer="layer1"
     showgrid="false"
     showguides="true"
     inkscape:guide-bbox="true"
     inkscape:window-width="1680"
     inkscape:window-height="987"
     inkscape:window-x="-8"
     inkscape:window-y="72"
     inkscape:window-maximized="1">
    <sodipodi:guide
       position="73.705355,169.71131"
       orientation="0,1"
       id="guide4524"
       inkscape:locked="false" />
    <sodipodi:guide
       position="89.013391,234.53423"
       orientation="0,1"
       id="guide4542"
       inkscape:locked="false" />
    <sodipodi:guide
       position="107.53422,207.69792"
       orientation="0,1"
       id="guide4544"
       inkscape:locked="false" />
    <sodipodi:guide
       position="119.46948,173.7252"
       orientation="1,0"
       id="guide4564"
       inkscape:locked="false" />
  </sodipodi:namedview>
  <metadata
     id="metadata5">
    <rdf:RDF>
      <cc:Work
         rdf:about="">
        <dc:format>image/svg+xml</dc:format>
        <dc:type
           rdf:resource="http://purl.org/dc/dcmitype/StillImage" />
      </cc:Work>
    </rdf:RDF>
  </metadata>
  <g
     inkscape:label="Layer 1"
     inkscape:groupmode="layer"
     id="layer1">
    <path
       style="opacity:1;fill:#075c17;fill-opacity:1;fill-rule:nonzero;stroke:#000000;stroke-width:3;stroke-linecap:round;stroke-linejoin:round;stroke-miterlimit:4;stroke-dasharray:none;stroke-dashoffset:0;stroke-opacity:1;paint-order:markers stroke fill"
       d="M 188.98795,127.28887 H 49.893077 a 69.547416,69.924797 0 0 0 0,5.3e-4 69.547416,69.924797 0 0 0 69.547183,69.92493 69.547416,69.924797 0 0 0 69.54769,-69.92493 69.547416,69.924797 0 0 0 0,-5.3e-4 z"
       id="path4529"
       inkscape:connector-curvature="0" />
    <path
       style="opacity:1;fill:#075c17;fill-opacity:1;fill-rule:nonzero;stroke:#000000;stroke-width:3;stroke-linecap:round;stroke-linejoin:round;stroke-miterlimit:4;stroke-dasharray:none;stroke-dashoffset:0;stroke-opacity:1;paint-order:markers stroke fill"
       d="M 119.44025,57.364457 A 69.547416,69.924797 0 0 0 49.893077,127.28887 H 188.98795 a 69.547416,69.924797 0 0 0 -69.5477,-69.924413 z"
       id="path4518"
       inkscape:connector-curvature="0" />
    <circle
       style="opacity:1;fill:#cddcd0;fill-opacity:1;fill-rule:nonzero;stroke:#000000;stroke-width:3;stroke-linecap:round;stroke-linejoin:round;stroke-miterlimit:4;stroke-dasharray:none;stroke-dashoffset:0;stroke-opacity:1;paint-order:markers stroke fill"
       id="path4520"
       cx="75.005951"
       cy="74.205368"
       r="26.627623" />
    <circle
       r="26.627623"
       cy="74.205368"
       cx="167.23215"
       id="circle4522"
       style="opacity:1;fill:#cddcd0;fill-opacity:1;fill-rule:nonzero;stroke:#000000;stroke-width:3;stroke-linecap:round;stroke-linejoin:round;stroke-miterlimit:4;stroke-dasharray:none;stroke-dashoffset:0;stroke-opacity:1;paint-order:markers stroke fill" />
    <path
       style="opacity:1;fill:#075c17;fill-opacity:1;fill-rule:nonzero;stroke:#000000;stroke-width:1.85422719;stroke-linecap:round;stroke-linejoin:round;stroke-miterlimit:4;stroke-dasharray:none;stroke-dashoffset:0;stroke-opacity:1;paint-order:markers stroke fill"
       d="m 182.08501,172.64601 h -32.91479 a 16.457886,16.457886 0 0 0 16.45739,16.44758 16.457886,16.457886 0 0 0 16.4574,-16.44758 z"
       id="path4538"
       inkscape:connector-curvature="0" />
    <path
       style="opacity:1;fill:#95776e;fill-opacity:1;fill-rule:nonzero;stroke:#000000;stroke-width:3;stroke-linecap:round;stroke-linejoin:round;stroke-miterlimit:4;stroke-dasharray:none;stroke-dashoffset:0;stroke-opacity:1;paint-order:markers stroke fill"
       d="m 119.46948,117.04511 a 16.457886,16.457886 0 0 0 16.4579,-16.45791 16.457886,16.457886 0 0 0 -5.3e-4,-0.0103 h -32.91478 a 16.457886,16.457886 0 0 0 -5.3e-4,0.0103 16.457886,16.457886 0 0 0 16.45791,16.45791 z"
       id="circle4533"
       inkscape:connector-curvature="0" />
    <path
       style="opacity:1;fill:#075c17;fill-opacity:1;fill-rule:nonzero;stroke:#000000;stroke-width:3;stroke-linecap:round;stroke-linejoin:round;stroke-miterlimit:4;stroke-dasharray:none;stroke-dashoffset:0;stroke-opacity:1;paint-order:markers stroke fill"
       d="m 96.904677,89.302041 h -43.82885 a 26.627621,26.627621 0 0 0 21.92993,11.531079 26.627621,26.627621 0 0 0 21.89892,-11.531079 z"
       id="path4556"
       inkscape:connector-curvature="0" />
    <path
       style="opacity:1;fill:#075c17;fill-opacity:1;fill-rule:nonzero;stroke:#000000;stroke-width:3;stroke-linecap:round;stroke-linejoin:round;stroke-miterlimit:4;stroke-dasharray:none;stroke-dashoffset:0;stroke-opacity:1;paint-order:markers stroke fill"
       d="M 75.238433,46.402103 A 26.627621,26.627621 0 0 0 51.374774,61.290084 l 47.746438,10e-7 A 26.627621,26.627621 0 0 0 75.238433,46.402103 Z"
       id="circle4540"
       inkscape:connector-curvature="0"
       inkscape:transform-center-x="-5.9089268"
       inkscape:transform-center-y="8.4126684" />
    <path
       inkscape:connector-curvature="0"
       id="path4560"
       d="m 189.22061,89.302041 h -43.82885 a 26.627621,26.627621 0 0 0 21.92993,11.531079 26.627621,26.627621 0 0 0 21.89892,-11.531079 z"
       style="opacity:1;fill:#075c17;fill-opacity:1;fill-rule:nonzero;stroke:#000000;stroke-width:3;stroke-linecap:round;stroke-linejoin:round;stroke-miterlimit:4;stroke-dasharray:none;stroke-dashoffset:0;stroke-opacity:1;paint-order:markers stroke fill" />
    <path
       inkscape:connector-curvature="0"
       id="path4562"
       d="m 167.70026,47.169255 a 26.627621,26.627621 0 0 0 -23.86365,14.88798 l 47.74644,1e-6 A 26.627621,26.627621 0 0 0 167.70026,47.169255 Z"
       style="opacity:1;fill:#075c17;fill-opacity:1;fill-rule:nonzero;stroke:#000000;stroke-width:3;stroke-linecap:round;stroke-linejoin:round;stroke-miterlimit:4;stroke-dasharray:none;stroke-dashoffset:0;stroke-opacity:1;paint-order:markers stroke fill" />
    <path
       style="fill:none;stroke:#000000;stroke-width:3;stroke-linecap:butt;stroke-linejoin:miter;stroke-miterlimit:4;stroke-dasharray:none;stroke-opacity:1"
       d="m 96.904676,149.95975 c 16.816124,-8.09668 32.622684,-6.09778 48.019364,0"
       id="path4566"
       inkscape:connector-curvature="0"
       sodipodi:nodetypes="cc" />
    <path
       inkscape:connector-curvature="0"
       id="path4568"
       d="m 101.15086,172.64601 h 48.01936"
       style="fill:none;stroke:#000000;stroke-width:3;stroke-linecap:butt;stroke-linejoin:miter;stroke-miterlimit:4;stroke-dasharray:none;stroke-opacity:1" />
  </g>
</svg>
